<mxfile host="app.diagrams.net" agent="Mozilla/5.0 (Windows NT 10.0; Win64; x64) AppleWebKit/537.36 (KHTML, like Gecko) Chrome/130.0.0.0 Safari/537.36" version="24.8.6">
  <diagram name="Página-1" id="yNcpjdk3RDNo13DC7Str">
    <mxGraphModel dx="880" dy="460" grid="1" gridSize="10" guides="1" tooltips="1" connect="1" arrows="1" fold="1" page="1" pageScale="1" pageWidth="827" pageHeight="1169" math="0" shadow="0">
      <root>
        <mxCell id="0" />
        <mxCell id="1" parent="0" />
        <mxCell id="Ge8NZZEA4h7eeyGSVmn_-1" value="Fuente Polarización Resistencia Térmica" style="rounded=1;whiteSpace=wrap;html=1;" vertex="1" parent="1">
          <mxGeometry x="480" y="400" width="120" height="60" as="geometry" />
        </mxCell>
        <mxCell id="Ge8NZZEA4h7eeyGSVmn_-6" style="edgeStyle=orthogonalEdgeStyle;rounded=0;orthogonalLoop=1;jettySize=auto;html=1;exitX=1;exitY=0.5;exitDx=0;exitDy=0;entryX=0;entryY=0.5;entryDx=0;entryDy=0;" edge="1" parent="1" source="Ge8NZZEA4h7eeyGSVmn_-2" target="Ge8NZZEA4h7eeyGSVmn_-3">
          <mxGeometry relative="1" as="geometry" />
        </mxCell>
        <mxCell id="Ge8NZZEA4h7eeyGSVmn_-12" style="edgeStyle=orthogonalEdgeStyle;rounded=0;orthogonalLoop=1;jettySize=auto;html=1;entryX=0;entryY=0.5;entryDx=0;entryDy=0;" edge="1" parent="1" source="Ge8NZZEA4h7eeyGSVmn_-2" target="Ge8NZZEA4h7eeyGSVmn_-1">
          <mxGeometry relative="1" as="geometry">
            <Array as="points">
              <mxPoint x="190" y="430" />
            </Array>
          </mxGeometry>
        </mxCell>
        <mxCell id="Ge8NZZEA4h7eeyGSVmn_-14" style="edgeStyle=orthogonalEdgeStyle;rounded=0;orthogonalLoop=1;jettySize=auto;html=1;entryX=0;entryY=0.5;entryDx=0;entryDy=0;" edge="1" parent="1" source="Ge8NZZEA4h7eeyGSVmn_-2" target="Ge8NZZEA4h7eeyGSVmn_-5">
          <mxGeometry relative="1" as="geometry">
            <Array as="points">
              <mxPoint x="190" y="130" />
            </Array>
          </mxGeometry>
        </mxCell>
        <mxCell id="Ge8NZZEA4h7eeyGSVmn_-2" value="Fuente AC" style="rounded=1;whiteSpace=wrap;html=1;" vertex="1" parent="1">
          <mxGeometry x="130" y="210" width="120" height="60" as="geometry" />
        </mxCell>
        <mxCell id="Ge8NZZEA4h7eeyGSVmn_-7" value="" style="edgeStyle=orthogonalEdgeStyle;rounded=0;orthogonalLoop=1;jettySize=auto;html=1;" edge="1" parent="1" source="Ge8NZZEA4h7eeyGSVmn_-3" target="Ge8NZZEA4h7eeyGSVmn_-4">
          <mxGeometry relative="1" as="geometry" />
        </mxCell>
        <mxCell id="Ge8NZZEA4h7eeyGSVmn_-3" value="Puente Diodos&lt;div&gt;(AC to DC)&lt;/div&gt;" style="rounded=1;whiteSpace=wrap;html=1;" vertex="1" parent="1">
          <mxGeometry x="300" y="210" width="120" height="60" as="geometry" />
        </mxCell>
        <mxCell id="Ge8NZZEA4h7eeyGSVmn_-4" value="Arduino&lt;div&gt;(controlador)&lt;/div&gt;" style="rounded=1;whiteSpace=wrap;html=1;" vertex="1" parent="1">
          <mxGeometry x="480" y="210" width="120" height="60" as="geometry" />
        </mxCell>
        <mxCell id="Ge8NZZEA4h7eeyGSVmn_-5" value="Aspiradora" style="rounded=1;whiteSpace=wrap;html=1;" vertex="1" parent="1">
          <mxGeometry x="480" y="100" width="120" height="60" as="geometry" />
        </mxCell>
        <mxCell id="Ge8NZZEA4h7eeyGSVmn_-18" value="" style="edgeStyle=orthogonalEdgeStyle;rounded=0;orthogonalLoop=1;jettySize=auto;html=1;" edge="1" parent="1" source="Ge8NZZEA4h7eeyGSVmn_-15" target="Ge8NZZEA4h7eeyGSVmn_-17">
          <mxGeometry relative="1" as="geometry" />
        </mxCell>
        <mxCell id="Ge8NZZEA4h7eeyGSVmn_-21" style="edgeStyle=orthogonalEdgeStyle;rounded=0;orthogonalLoop=1;jettySize=auto;html=1;entryX=1;entryY=0.5;entryDx=0;entryDy=0;" edge="1" parent="1" source="Ge8NZZEA4h7eeyGSVmn_-15" target="Ge8NZZEA4h7eeyGSVmn_-16">
          <mxGeometry relative="1" as="geometry">
            <Array as="points">
              <mxPoint x="890" y="340" />
            </Array>
          </mxGeometry>
        </mxCell>
        <mxCell id="Ge8NZZEA4h7eeyGSVmn_-15" value="Termocupla" style="rounded=1;whiteSpace=wrap;html=1;" vertex="1" parent="1">
          <mxGeometry x="830" y="210" width="120" height="60" as="geometry" />
        </mxCell>
        <mxCell id="Ge8NZZEA4h7eeyGSVmn_-16" value="Resistencia de potencia&lt;div&gt;(Calienta)&lt;/div&gt;" style="rounded=1;whiteSpace=wrap;html=1;" vertex="1" parent="1">
          <mxGeometry x="480" y="310" width="120" height="60" as="geometry" />
        </mxCell>
        <mxCell id="Ge8NZZEA4h7eeyGSVmn_-19" value="" style="edgeStyle=orthogonalEdgeStyle;rounded=0;orthogonalLoop=1;jettySize=auto;html=1;" edge="1" parent="1" source="Ge8NZZEA4h7eeyGSVmn_-17" target="Ge8NZZEA4h7eeyGSVmn_-4">
          <mxGeometry relative="1" as="geometry" />
        </mxCell>
        <mxCell id="Ge8NZZEA4h7eeyGSVmn_-17" value="Amplificador&lt;div&gt;Etapa Potencia&lt;/div&gt;" style="rounded=1;whiteSpace=wrap;html=1;" vertex="1" parent="1">
          <mxGeometry x="660" y="210" width="120" height="60" as="geometry" />
        </mxCell>
        <mxCell id="Ge8NZZEA4h7eeyGSVmn_-20" value="Etapa De Potencia" style="rounded=1;whiteSpace=wrap;html=1;" vertex="1" parent="1">
          <mxGeometry x="660" y="400" width="120" height="60" as="geometry" />
        </mxCell>
      </root>
    </mxGraphModel>
  </diagram>
</mxfile>
